<svg xmlns="http://www.w3.org/2000/svg" fill="none" viewBox="0 0 24 24" stroke-width="1.5" stroke="currentColor">
  <path stroke-linecap="round" stroke-linejoin="round" d="M16.5 18.75h-9m9 0a3 3 0 013 3h-15a3 3 0 013-3m9 0v-3.375c0-.621-.503-1.125-1.125-1.125h-.871M7.5 18.75v-3.375c0-.621.504-1.125 1.125-1.125h.87" />
  <path stroke-linecap="round" stroke-linejoin="round" d="M12 15.75v3M12 12V6.75m0 0l-3 3m3-3l3 3M5.25 9.75l-1.5 1.5m14.25-1.5l1.5 1.5M12 21a8.25 8.25 0 00-8.25-8.25V9.75A8.25 8.25 0 0112 1.5v0a8.25 8.25 0 018.25 8.25v3a8.25 8.25 0 00-8.25 8.25v0z" />
</svg>